<svg xmlns="http://www.w3.org/2000/svg" viewBox="0 0 1200 675">
  <!-- Background -->
  <rect width="1200" height="675" fill="#f8f9fa" />
  
  <!-- Decorative border -->
  <rect x="20" y="20" width="1160" height="635" fill="none" stroke="#9d8c70" stroke-width="4" />
  
  <!-- Open Bible -->
  <path d="M350,200 L600,150 L850,200 L850,400 L600,450 L350,400 Z" fill="#e2d8c6" />
  <path d="M600,150 L600,450" stroke="#9d8c70" stroke-width="3" />
  
  <!-- Bible pages texture - left side -->
  <path d="M360,205 L590,160 L590,440 L360,395 Z" fill="#f8f9fa" />
  <line x1="380" y1="210" x2="570" y2="175" stroke="#d1c5ad" stroke-width="1" />
  <line x1="380" y1="230" x2="570" y2="195" stroke="#d1c5ad" stroke-width="1" />
  <line x1="380" y1="250" x2="570" y2="215" stroke="#d1c5ad" stroke-width="1" />
  <line x1="380" y1="270" x2="570" y2="235" stroke="#d1c5ad" stroke-width="1" />
  <line x1="380" y1="290" x2="570" y2="255" stroke="#d1c5ad" stroke-width="1" />
  <line x1="380" y1="310" x2="570" y2="275" stroke="#d1c5ad" stroke-width="1" />
  <line x1="380" y1="330" x2="570" y2="295" stroke="#d1c5ad" stroke-width="1" />
  <line x1="380" y1="350" x2="570" y2="315" stroke="#d1c5ad" stroke-width="1" />
  <line x1="380" y1="370" x2="570" y2="335" stroke="#d1c5ad" stroke-width="1" />
  
  <!-- Bible pages texture - right side -->
  <path d="M610,160 L840,205 L840,395 L610,440 Z" fill="#f8f9fa" />
  <line x1="630" y1="175" x2="820" y2="210" stroke="#d1c5ad" stroke-width="1" />
  <line x1="630" y1="195" x2="820" y2="230" stroke="#d1c5ad" stroke-width="1" />
  <line x1="630" y1="215" x2="820" y2="250" stroke="#d1c5ad" stroke-width="1" />
  <line x1="630" y1="235" x2="820" y2="270" stroke="#d1c5ad" stroke-width="1" />
  <line x1="630" y1="255" x2="820" y2="290" stroke="#d1c5ad" stroke-width="1" />
  <line x1="630" y1="275" x2="820" y2="310" stroke="#d1c5ad" stroke-width="1" />
  <line x1="630" y1="295" x2="820" y2="330" stroke="#d1c5ad" stroke-width="1" />
  <line x1="630" y1="315" x2="820" y2="350" stroke="#d1c5ad" stroke-width="1" />
  <line x1="630" y1="335" x2="820" y2="370" stroke="#d1c5ad" stroke-width="1" />
  
  <!-- Romans 3:28 on Bible page -->
  <text x="470" y="280" font-family="Baskerville, Georgia, serif" font-size="18" fill="#695c4a" text-anchor="middle" transform="rotate(-5, 470, 280)">Romans 3:28</text>
  
  <!-- Title background -->
  <rect x="200" y="500" width="800" height="100" fill="#9d8c70" />
  
  <!-- Title text -->
  <text x="600" y="565" font-family="Baskerville, Georgia, serif" font-size="48" text-anchor="middle" fill="#fff">SOLA FIDE</text>
  <text x="600" y="595" font-family="Helvetica Neue, Arial, sans-serif" font-size="24" text-anchor="middle" fill="#f8f9fa">Justification by Faith Alone</text>
  
  <!-- Scripture reference -->
  <text x="600" y="470" font-family="Baskerville, Georgia, serif" font-size="20" text-anchor="middle" fill="#695c4a" font-style="italic">"One is justified by faith apart from works of the law."</text>
</svg>