<svg xmlns="http://www.w3.org/2000/svg" version="1.0" viewBox="0 0 525 375">
  <defs>
    <clipPath id="a">
      <path d="M16.504 156.953h67.5v67.5h-67.5Zm0 0"/>
    </clipPath>
  </defs>
  <g clip-path="url(#a)">
    <path fill-rule="evenodd" d="M50.254 156.953c18.629 0 33.75 15.125 33.75 33.75 0 18.629-15.121 33.75-33.75 33.75-18.625 0-33.75-15.121-33.75-33.75 0-18.625 15.125-33.75 33.75-33.75Zm0 2.414c-17.293 0-31.336 14.04-31.336 31.336 0 17.297 14.043 31.34 31.336 31.34 17.297 0 31.34-14.043 31.34-31.34s-14.043-31.336-31.34-31.336Zm13.5 39.875a4.964 4.964 0 1 1 0 9.926 4.964 4.964 0 0 1 0-9.926Zm0-27a4.964 4.964 0 1 1 0 9.926 4.964 4.964 0 0 1 0-9.926Zm-27 0a4.964 4.964 0 1 1 0 9.926 4.964 4.964 0 0 1 0-9.926Zm0 27a4.964 4.964 0 1 1 0 9.926 4.964 4.964 0 0 1 0-9.926Zm9.93-4.965H25.44v-7.148h21.243v-21.242h7.144v21.242H75.07v7.148H53.828v21.243h-7.144Zm0 0"/>
  </g>
  <path d="M114.425 162.417h.953l.313 7.78h-1.266c-.492-1.976-1.45-3.53-2.875-4.655-1.418-1.133-3.133-1.704-5.14-1.704-1.376 0-2.606.274-3.688.813-1.086.543-2 1.324-2.75 2.344-.742 1.011-1.309 2.25-1.703 3.718-.399 1.47-.594 3.125-.594 4.97 0 3.636.754 6.433 2.266 8.39 1.508 1.949 3.703 2.922 6.578 2.922 4.351 0 7.148-2.313 8.39-6.938h1.391v8.422h-1.187l-.782-2.672c-2.375 2.012-5.242 3.016-8.593 3.016-1.918 0-3.653-.305-5.204-.906-1.543-.614-2.859-1.477-3.953-2.594-1.093-1.125-1.945-2.485-2.547-4.078-.593-1.602-.89-3.391-.89-5.36 0-2.05.312-3.922.937-5.61.633-1.694 1.52-3.155 2.657-4.374a11.657 11.657 0 0 1 4.093-2.813c1.594-.664 3.352-1 5.282-1 1.343 0 2.613.196 3.812.579 1.195.375 2.492.992 3.89 1.843Zm14.83 7.781c1.281 0 2.492.234 3.64.703a9.55 9.55 0 0 1 3.032 1.906 9.004 9.004 0 0 1 2.078 2.906c.508 1.118.766 2.336.766 3.657 0 1.375-.258 2.64-.766 3.797a9.423 9.423 0 0 1-5.11 4.953 9.531 9.531 0 0 1-3.64.703 9.645 9.645 0 0 1-3.61-.688 9.434 9.434 0 0 1-3-1.953c-.855-.832-1.53-1.832-2.03-3-.493-1.164-.735-2.437-.735-3.812 0-1.32.242-2.547.735-3.672a8.98 8.98 0 0 1 2.03-2.922 9.335 9.335 0 0 1 3-1.89 9.645 9.645 0 0 1 3.61-.688Zm0 1.625a4.8 4.8 0 0 0-2.281.547 5.245 5.245 0 0 0-1.766 1.547c-.48.656-.851 1.453-1.109 2.39-.262.938-.39 1.977-.39 3.11 0 1.167.128 2.226.39 3.171.258.95.629 1.758 1.11 2.422a5.186 5.186 0 0 0 1.75 1.547c.675.356 1.44.531 2.296.531.852 0 1.63-.175 2.328-.53a5.047 5.047 0 0 0 1.797-1.563c.5-.676.883-1.489 1.156-2.438.27-.945.407-1.992.407-3.14 0-1.133-.137-2.16-.407-3.079-.273-.925-.656-1.722-1.156-2.39a5.33 5.33 0 0 0-1.797-1.563c-.699-.375-1.476-.562-2.328-.562Zm18.446 11.344c0 .93.02 1.656.063 2.187.05.531.172.938.36 1.219.187.281.468.469.843.562.375.086.89.149 1.547.188v1.156h-8.875v-1.156c.633-.04 1.133-.102 1.5-.188.375-.093.66-.273.86-.547.206-.27.335-.656.39-1.156.062-.5.094-1.176.094-2.031v-4.5c0-2.688-.07-4.32-.203-4.906a2.742 2.742 0 0 0-.25-.72 1.073 1.073 0 0 0-.47-.452 2.178 2.178 0 0 0-.78-.203 12.55 12.55 0 0 0-1.204-.047v-1.078l5.407-1.297.406 3.36h.14a9.142 9.142 0 0 1 3-2.47 8.13 8.13 0 0 1 3.766-.89c1.04 0 1.989.172 2.844.515.852.336 1.508.797 1.969 1.391.383.512.656 1.184.812 2.016.156.824.235 1.953.235 3.39v5.657c0 .93.023 1.656.078 2.187.062.531.18.938.36 1.219.175.281.452.469.827.562.375.086.864.149 1.469.188v1.156h-8.766v-1.156c.633-.02 1.141-.078 1.516-.172.375-.102.656-.29.844-.563.187-.27.304-.66.36-1.171.062-.508.093-1.18.093-2.016v-4.469c0-1.281-.07-2.36-.203-3.234-.137-.883-.356-1.598-.657-2.14-.304-.54-.703-.93-1.203-1.173-.5-.238-1.101-.36-1.797-.36a5.185 5.185 0 0 0-2.796.798 5.421 5.421 0 0 0-1.97 2.187c-.116.23-.214.45-.296.657a4.32 4.32 0 0 0-.188.703 9.487 9.487 0 0 0-.093.937c-.024.344-.032.79-.032 1.328Zm16.756-12.079h3.813v-2.437c0-2.594.68-4.617 2.047-6.078 1.363-1.457 3.312-2.188 5.843-2.188 1.395 0 2.532.219 3.407.657.882.43 1.328.98 1.328 1.656 0 .449-.14.824-.422 1.125a1.383 1.383 0 0 1-1.063.453c-.273 0-.558-.082-.859-.25-.305-.164-.703-.453-1.203-.86-.563-.476-1.008-.789-1.328-.937-.313-.145-.684-.219-1.11-.219-1.355 0-2.324.688-2.906 2.063-.21.46-.355 1.015-.437 1.672-.075.648-.11 1.547-.11 2.703v2.64h5.453v1.579h-5.453v10.359c0 .836.051 1.523.157 2.062.101.543.28.98.53 1.313.259.324.614.547 1.063.672.457.125 1.047.199 1.766.219v1.187h-9.61v-1.187c.633-.02 1.141-.079 1.516-.172.383-.102.676-.297.875-.578.207-.29.344-.688.406-1.188.07-.508.11-1.191.11-2.047v-10.64h-3.813Zm30.493 14.25c-1.918 2.325-4.296 3.485-7.14 3.485-1.336 0-2.543-.219-3.625-.656a8.16 8.16 0 0 1-2.797-1.875 8.287 8.287 0 0 1-1.813-2.875c-.43-1.114-.64-2.348-.64-3.704 0-1.375.222-2.644.672-3.812.457-1.176 1.097-2.18 1.922-3.016.82-.843 1.8-1.5 2.937-1.968 1.145-.477 2.395-.72 3.75-.72 2.188 0 3.875.595 5.063 1.782 1.195 1.188 1.796 2.887 1.796 5.094 0 .312-.062.508-.187.578-.125.062-.414.094-.86.094h-11.124a3.35 3.35 0 0 0-.11.672 9.742 9.742 0 0 0-.031.859c0 1.168.14 2.234.422 3.203.281.961.687 1.777 1.219 2.453a5.658 5.658 0 0 0 1.89 1.578c.738.367 1.555.547 2.453.547.946 0 1.828-.207 2.64-.625.813-.414 1.65-1.098 2.517-2.047Zm-5.593-9.14c.457 0 .82-.008 1.093-.031.27-.032.473-.079.61-.141a.529.529 0 0 0 .265-.281c.04-.125.063-.29.063-.5 0-1.04-.336-1.868-1-2.485-.668-.625-1.574-.937-2.719-.937-2.437 0-3.949 1.46-4.531 4.375Zm10.22 12.281h-.734v-5.828h.844c.875 3.187 2.472 4.781 4.796 4.781.907 0 1.625-.219 2.157-.656.531-.445.797-1.117.797-2.016 0-.343-.055-.629-.157-.86-.105-.237-.297-.487-.578-.75-.281-.257-.68-.554-1.187-.89-.5-.343-1.168-.773-2-1.297a29.93 29.93 0 0 1-2-1.312 9.331 9.331 0 0 1-1.422-1.234 4.472 4.472 0 0 1-.875-1.329c-.188-.476-.281-1.035-.281-1.671 0-.77.129-1.473.39-2.11a4.82 4.82 0 0 1 1.063-1.64 5.084 5.084 0 0 1 1.593-1.079 5.115 5.115 0 0 1 2-.39 6.62 6.62 0 0 1 1.891.297 6.517 6.517 0 0 1 1.734.765l.672-.718h.641v4.875h-.875c-.5-1.375-1.047-2.352-1.64-2.938-.587-.594-1.305-.89-2.157-.89-.762 0-1.375.203-1.844.609-.46.406-.687.969-.687 1.687 0 .387.062.719.187 1 .125.282.32.559.594.828.27.274.613.555 1.031.844.414.281.914.602 1.5.953a78.019 78.019 0 0 1 2.485 1.64c.687.47 1.242.934 1.672 1.392.437.46.754.937.953 1.437.207.5.312 1.063.312 1.688 0 1.605-.523 2.867-1.562 3.78-1.043.919-2.407 1.376-4.094 1.376-1.762 0-3.273-.508-4.531-1.531Zm15.365 0h-.734v-5.828h.844c.875 3.187 2.472 4.781 4.797 4.781.906 0 1.625-.219 2.156-.656.531-.445.797-1.117.797-2.016 0-.343-.055-.629-.157-.86-.105-.237-.296-.487-.578-.75-.281-.257-.68-.554-1.187-.89-.5-.343-1.168-.773-2-1.297a29.93 29.93 0 0 1-2-1.312 9.331 9.331 0 0 1-1.422-1.234 4.472 4.472 0 0 1-.875-1.329c-.188-.476-.281-1.035-.281-1.671 0-.77.129-1.473.39-2.11a4.82 4.82 0 0 1 1.063-1.64 5.084 5.084 0 0 1 1.594-1.079 5.115 5.115 0 0 1 2-.39 6.62 6.62 0 0 1 1.89.297 6.517 6.517 0 0 1 1.735.765l.671-.718h.641v4.875h-.875c-.5-1.375-1.047-2.352-1.64-2.938-.587-.594-1.305-.89-2.157-.89-.762 0-1.375.203-1.844.609-.46.406-.687.969-.687 1.687 0 .387.062.719.187 1 .125.282.32.559.594.828.27.274.613.555 1.031.844.414.281.914.602 1.5.953a78.019 78.019 0 0 1 2.485 1.64c.687.47 1.242.934 1.672 1.392.437.46.754.937.953 1.437.207.5.312 1.063.312 1.688 0 1.605-.523 2.867-1.562 3.78-1.043.919-2.406 1.376-4.094 1.376-1.762 0-3.273-.508-4.531-1.531Zm20.178-5.375c0 .875.035 1.578.11 2.11.081.53.234.949.452 1.25.227.304.547.511.953.624.407.118.946.184 1.625.204v1.187h-9.703v-1.187c.676-.02 1.227-.094 1.657-.22.425-.124.753-.327.984-.609.238-.28.398-.671.484-1.171.082-.508.125-1.16.125-1.954v-4.328c0-1.312-.023-2.39-.062-3.234-.031-.852-.094-1.438-.188-1.75-.105-.52-.36-.875-.765-1.063-.407-.195-1.18-.296-2.313-.296v-1.172l6.64-1.297Zm-3.89-19.766c0-.593.202-1.093.609-1.5a2.015 2.015 0 0 1 1.484-.609c.582 0 1.078.203 1.484.61.407.406.61.906.61 1.5 0 .585-.203 1.078-.61 1.484-.406.406-.902.61-1.484.61a2.016 2.016 0 0 1-1.484-.61 2.016 2.016 0 0 1-.61-1.485Zm18.712 6.86c1.281 0 2.492.234 3.64.703a9.55 9.55 0 0 1 3.032 1.906 9.004 9.004 0 0 1 2.078 2.906c.508 1.118.765 2.336.765 3.657 0 1.375-.257 2.64-.765 3.797a9.423 9.423 0 0 1-5.11 4.953 9.531 9.531 0 0 1-3.64.703 9.645 9.645 0 0 1-3.61-.688 9.434 9.434 0 0 1-3-1.953c-.855-.832-1.53-1.832-2.03-3-.493-1.164-.735-2.437-.735-3.812 0-1.32.242-2.547.734-3.672a8.98 8.98 0 0 1 2.031-2.922 9.335 9.335 0 0 1 3-1.89 9.645 9.645 0 0 1 3.61-.688Zm0 1.625a4.8 4.8 0 0 0-2.282.547 5.245 5.245 0 0 0-1.765 1.547c-.48.656-.852 1.453-1.11 2.39-.261.938-.39 1.977-.39 3.11 0 1.167.129 2.226.39 3.171.258.95.63 1.758 1.11 2.422a5.186 5.186 0 0 0 1.75 1.547c.676.356 1.441.531 2.297.531.851 0 1.629-.175 2.328-.53a5.047 5.047 0 0 0 1.797-1.563c.5-.676.883-1.489 1.156-2.438.27-.945.406-1.992.406-3.14 0-1.133-.136-2.16-.406-3.079-.273-.925-.656-1.722-1.156-2.39a5.33 5.33 0 0 0-1.797-1.563c-.7-.375-1.477-.562-2.328-.562Zm18.446 11.344c0 .93.02 1.656.062 2.187.051.531.172.938.36 1.219.187.281.469.469.844.562.375.086.89.149 1.546.188v1.156h-8.875v-1.156c.633-.04 1.133-.102 1.5-.188.375-.093.66-.273.86-.547.207-.27.336-.656.39-1.156.063-.5.094-1.176.094-2.031v-4.5c0-2.688-.07-4.32-.203-4.906a2.742 2.742 0 0 0-.25-.72 1.073 1.073 0 0 0-.469-.452 2.183 2.183 0 0 0-.78-.203 12.55 12.55 0 0 0-1.204-.047v-1.078l5.406-1.297.406 3.36h.141a9.142 9.142 0 0 1 3-2.47c1.156-.593 2.41-.89 3.766-.89 1.039 0 1.988.172 2.843.515.852.336 1.508.797 1.97 1.391.382.512.655 1.184.812 2.016.156.824.234 1.953.234 3.39v5.657c0 .93.024 1.656.078 2.187.063.531.18.938.36 1.219.175.281.453.469.828.562a9.52 9.52 0 0 0 1.468.188v1.156h-8.765v-1.156c.633-.02 1.14-.078 1.515-.172.375-.102.657-.29.844-.563.188-.27.305-.66.36-1.171.062-.508.093-1.18.093-2.016v-4.469c0-1.281-.07-2.36-.203-3.234-.136-.883-.355-1.598-.656-2.14-.305-.54-.703-.93-1.203-1.173-.5-.238-1.102-.36-1.797-.36a5.185 5.185 0 0 0-2.797.798 5.421 5.421 0 0 0-1.969 2.187 8.05 8.05 0 0 0-.297.657 4.32 4.32 0 0 0-.187.703 9.487 9.487 0 0 0-.094.937c-.023.344-.031.79-.031 1.328Zm18.912 5.312h-.734v-5.828h.843c.875 3.187 2.473 4.781 4.797 4.781.907 0 1.625-.219 2.157-.656.53-.445.796-1.117.796-2.016 0-.343-.054-.629-.156-.86-.105-.237-.297-.487-.578-.75-.281-.257-.68-.554-1.187-.89-.5-.343-1.168-.773-2-1.297a29.93 29.93 0 0 1-2-1.312 9.331 9.331 0 0 1-1.422-1.234 4.472 4.472 0 0 1-.875-1.329c-.188-.476-.282-1.035-.282-1.671 0-.77.13-1.473.391-2.11a4.82 4.82 0 0 1 1.063-1.64 5.084 5.084 0 0 1 1.593-1.079 5.115 5.115 0 0 1 2-.39c.602 0 1.235.101 1.89.297a6.517 6.517 0 0 1 1.735.765l.672-.718h.64v4.875h-.874c-.5-1.375-1.047-2.352-1.64-2.938-.587-.594-1.306-.89-2.157-.89-.762 0-1.375.203-1.844.609-.46.406-.687.969-.687 1.687 0 .387.062.719.187 1 .125.282.32.559.594.828.27.274.613.555 1.031.844.414.281.914.602 1.5.953a78.019 78.019 0 0 1 2.485 1.64c.687.47 1.242.934 1.671 1.392.438.46.754.937.954 1.437.207.5.312 1.063.312 1.688 0 1.605-.523 2.867-1.562 3.78-1.043.919-2.407 1.376-4.094 1.376-1.762 0-3.274-.508-4.531-1.531Zm33.172-18.281c1.281 0 2.492.234 3.64.703a9.55 9.55 0 0 1 3.032 1.906 9.004 9.004 0 0 1 2.078 2.906c.508 1.118.766 2.336.766 3.657 0 1.375-.258 2.64-.766 3.797a9.423 9.423 0 0 1-5.11 4.953 9.531 9.531 0 0 1-3.64.703 9.645 9.645 0 0 1-3.61-.688 9.434 9.434 0 0 1-3-1.953c-.855-.832-1.53-1.832-2.03-3-.493-1.164-.735-2.437-.735-3.812 0-1.32.242-2.547.734-3.672a8.98 8.98 0 0 1 2.032-2.922 9.335 9.335 0 0 1 3-1.89 9.645 9.645 0 0 1 3.609-.688Zm0 1.625a4.8 4.8 0 0 0-2.281.547 5.245 5.245 0 0 0-1.766 1.547c-.48.656-.851 1.453-1.11 2.39-.261.938-.39 1.977-.39 3.11 0 1.167.129 2.226.39 3.171.259.95.63 1.758 1.11 2.422a5.186 5.186 0 0 0 1.75 1.547c.676.356 1.441.531 2.297.531.852 0 1.629-.175 2.328-.53a5.047 5.047 0 0 0 1.797-1.563c.5-.676.883-1.489 1.156-2.438.27-.945.406-1.992.406-3.14 0-1.133-.136-2.16-.406-3.079-.273-.925-.656-1.722-1.156-2.39a5.33 5.33 0 0 0-1.797-1.563c-.7-.375-1.476-.562-2.328-.562Zm11.884-.735h3.812v-2.437c0-2.594.68-4.617 2.047-6.078 1.363-1.457 3.313-2.188 5.844-2.188 1.394 0 2.531.219 3.406.657.883.43 1.328.98 1.328 1.656 0 .449-.14.824-.422 1.125a1.383 1.383 0 0 1-1.062.453c-.274 0-.559-.082-.86-.25-.304-.164-.703-.453-1.203-.86-.562-.476-1.007-.789-1.328-.937-.312-.145-.683-.219-1.11-.219-1.355 0-2.323.688-2.905 2.063-.211.46-.356 1.015-.438 1.672-.074.648-.11 1.547-.11 2.703v2.64h5.454v1.579h-5.453v10.359c0 .836.05 1.523.156 2.062.102.543.281.98.531 1.313.258.324.614.547 1.063.672.457.125 1.047.199 1.765.219v1.187h-9.609v-1.187c.633-.02 1.14-.079 1.516-.172.382-.102.675-.297.875-.578.207-.29.343-.688.406-1.188.07-.508.11-1.191.11-2.047v-10.64h-3.813Zm37.391 17.735c-1.918 0-3.649-.305-5.188-.906-1.53-.614-2.84-1.477-3.922-2.594-1.085-1.125-1.914-2.485-2.484-4.078-.574-1.602-.86-3.391-.86-5.36 0-2.05.313-3.922.938-5.61.633-1.694 1.52-3.155 2.656-4.374a11.657 11.657 0 0 1 4.094-2.813c1.594-.664 3.352-1 5.281-1 1.344 0 2.614.196 3.813.579 1.195.375 2.492.992 3.89 1.843l.72-2.093h1.187l-.438 7.78h-1.625c0-1.1-.215-2.054-.64-2.859a5.785 5.785 0 0 0-1.64-1.968 6.954 6.954 0 0 0-2.313-1.157 9.528 9.528 0 0 0-2.657-.375c-1.375 0-2.605.274-3.687.813-1.086.543-2 1.324-2.75 2.344-.742 1.011-1.309 2.25-1.703 3.718-.399 1.47-.594 3.125-.594 4.97 0 3.636.754 6.433 2.266 8.39 1.507 1.949 3.703 2.922 6.578 2.922 1.07 0 2.035-.13 2.89-.391.864-.258 1.594-.61 2.188-1.047.601-.445 1.055-.957 1.36-1.531.3-.57.452-1.176.452-1.813 0-1.3-.265-2.18-.797-2.64-.523-.469-1.382-.703-2.578-.703v-1.282h9.61v1.282c-.543 0-.996.047-1.36.14-.355.086-.64.246-.859.485-.219.242-.371.554-.453.937-.074.375-.11.86-.11 1.453v3.782c-.43 0-.82.023-1.171.062-.344.031-.711.11-1.094.234-.387.125-.809.297-1.266.516-.46.211-1.008.492-1.64.844-.793.46-1.704.824-2.735 1.094-1.023.27-2.14.406-3.36.406Zm22.475-5.719c0 .918.02 1.648.063 2.188.05.542.171.96.359 1.25.187.28.46.468.828.562.363.086.867.148 1.516.188v1.187h-9v-1.187c.656-.02 1.176-.079 1.562-.172.383-.102.676-.29.875-.563.207-.27.336-.66.39-1.172.063-.508.095-1.191.095-2.047v-3.968a82.17 82.17 0 0 0-.063-3.578c-.031-.864-.148-1.5-.344-1.907-.187-.406-.484-.644-.89-.718-.407-.083-.969-.125-1.688-.125v-1.188l5.922-1.281.469 4.203h.14a8.402 8.402 0 0 1 1.094-1.86c.446-.57.926-1.05 1.438-1.437a7.2 7.2 0 0 1 1.625-.937 4.667 4.667 0 0 1 1.734-.344c.719 0 1.285.18 1.703.531.414.355.625.824.625 1.406 0 .543-.172.965-.515 1.266-.336.305-.813.453-1.438.453-.367 0-.672-.039-.922-.125a4.739 4.739 0 0 1-.656-.297 14.762 14.762 0 0 0-.547-.281 1.107 1.107 0 0 0-.547-.14c-.617 0-1.23.39-1.844 1.171-.605.781-1.074 1.766-1.406 2.953a14.678 14.678 0 0 0-.437 2.219c-.094.824-.14 1.688-.14 2.594Zm20.44-4.641c-1.293.5-2.386.985-3.28 1.454-.888.468-1.602.945-2.141 1.421-.543.47-.934.946-1.172 1.422a3.26 3.26 0 0 0-.344 1.453c0 .75.242 1.368.734 1.844.5.469 1.157.703 1.969.703.594 0 1.14-.144 1.64-.437a4.764 4.764 0 0 0 1.344-1.203c.383-.508.688-1.11.907-1.797a6.934 6.934 0 0 0 .343-2.188Zm0-1.453v-1.39c0-2.75-1.171-4.125-3.515-4.125a3.96 3.96 0 0 0-.985.109c-.273.063-.5.172-.687.328-.18.156-.34.383-.484.672-.149.293-.29.652-.422 1.078-.25.656-.496 1.094-.735 1.313-.23.21-.574.312-1.031.312-1.125 0-1.687-.562-1.687-1.687 0-1.082.57-1.922 1.718-2.516 1.157-.602 2.797-.906 4.922-.906 2.25 0 3.848.402 4.797 1.203.945.805 1.422 2.164 1.422 4.078v7.578c0 2.574.508 3.86 1.531 3.86.313 0 .613-.036.906-.11.29-.082.54-.289.75-.625l.47.813c-.274.523-.766.96-1.485 1.312a5.196 5.196 0 0 1-2.266.516c-1 0-1.746-.32-2.234-.953-.48-.633-.719-1.524-.719-2.672h-.172a6.745 6.745 0 0 1-2.437 2.625c-1.032.636-2.18.953-3.438.953-1.43 0-2.547-.36-3.36-1.078-.812-.719-1.218-1.688-1.218-2.906 0-.54.094-1.055.281-1.547.196-.5.508-.973.938-1.422.426-.457.988-.906 1.687-1.344.707-.437 1.567-.883 2.578-1.344Zm24.062 8.657c-.812 1-1.867 1.777-3.156 2.328-1.281.55-2.668.828-4.156.828-1.2 0-2.297-.219-3.297-.656a7.648 7.648 0 0 1-2.594-1.875c-.719-.801-1.277-1.766-1.672-2.891-.398-1.125-.593-2.375-.593-3.75 0-1.445.222-2.75.671-3.906.457-1.164 1.098-2.16 1.922-2.985.82-.82 1.813-1.453 2.97-1.89 1.163-.446 2.444-.672 3.843-.672.883 0 1.687.078 2.406.234.719.149 1.344.352 1.875.61.531.25.941.562 1.234.937.29.375.438.777.438 1.203 0 .45-.148.797-.438 1.047-.293.25-.699.375-1.218.375-.407 0-.746-.082-1.016-.25-.273-.176-.621-.555-1.047-1.14-.449-.52-.883-.883-1.297-1.094-.418-.22-.953-.328-1.61-.328-1.605 0-2.82.62-3.64 1.859-.824 1.242-1.234 3.07-1.234 5.484 0 2.594.457 4.563 1.375 5.907.914 1.343 2.25 2.015 4 2.015.945 0 1.836-.18 2.672-.547.844-.375 1.691-.984 2.547-1.828Zm18.687-.329c-1.918 2.325-4.296 3.485-7.14 3.485-1.336 0-2.543-.219-3.625-.656a8.16 8.16 0 0 1-2.797-1.875 8.287 8.287 0 0 1-1.813-2.875c-.43-1.114-.64-2.348-.64-3.704 0-1.375.222-2.644.672-3.812.457-1.176 1.097-2.18 1.922-3.016.82-.843 1.8-1.5 2.937-1.968 1.145-.477 2.395-.72 3.75-.72 2.188 0 3.875.595 5.063 1.782 1.195 1.188 1.796 2.887 1.796 5.094 0 .312-.062.508-.187.578-.125.062-.414.094-.86.094h-11.124a3.35 3.35 0 0 0-.11.672 9.742 9.742 0 0 0-.031.859c0 1.168.14 2.234.422 3.203.281.961.687 1.777 1.219 2.453a5.658 5.658 0 0 0 1.89 1.578c.738.367 1.555.547 2.453.547.946 0 1.828-.207 2.64-.625.813-.414 1.65-1.098 2.517-2.047Zm-5.593-9.14c.457 0 .82-.008 1.093-.031.27-.032.473-.079.61-.141a.529.529 0 0 0 .265-.281c.04-.125.063-.29.063-.5 0-1.04-.336-1.868-1-2.485-.668-.625-1.574-.937-2.719-.937-2.437 0-3.95 1.46-4.531 4.375Zm-346.034 39.63a17.425 17.425 0 0 1-1.312 1.734 6.86 6.86 0 0 1-1.328 1.172 4.96 4.96 0 0 1-1.438.672 6.509 6.509 0 0 1-1.64.203c-.867 0-1.64-.136-2.328-.406a4.7 4.7 0 0 1-1.75-1.172 5.495 5.495 0 0 1-1.094-1.875c-.262-.726-.39-1.55-.39-2.469 0-1.207.218-2.359.655-3.453a9.953 9.953 0 0 1 1.782-2.906 8.79 8.79 0 0 1 2.593-2.016c.977-.5 2-.75 3.063-.75.613 0 1.195.094 1.75.282.55.187 1.11.476 1.672.86l.719-.954h.703l-.875 4.781h-.735c-.093-1.383-.386-2.39-.875-3.015-.492-.633-1.226-.954-2.203-.954a4.7 4.7 0 0 0-2.36.625c-.718.418-1.343.997-1.874 1.735-.531.73-.953 1.594-1.266 2.594a10.821 10.821 0 0 0-.453 3.187c0 3.156 1.227 4.734 3.688 4.734.914 0 1.742-.242 2.484-.734.738-.5 1.445-1.281 2.125-2.344Zm4.753 3.782c-.43 0-.828-.087-1.203-.25a2.952 2.952 0 0 1-.984-.75 3.731 3.731 0 0 1-.672-1.22 4.833 4.833 0 0 1-.25-1.609c0-.82.156-1.633.469-2.437a7.633 7.633 0 0 1 1.234-2.125 6.286 6.286 0 0 1 1.735-1.5c.656-.383 1.332-.578 2.03-.578.458 0 .88.09 1.266.265.383.168.711.414.985.735.281.324.5.71.656 1.156.156.45.234.95.234 1.5 0 .805-.164 1.61-.484 2.422a8.37 8.37 0 0 1-1.234 2.187 6.882 6.882 0 0 1-1.766 1.594c-.656.406-1.328.61-2.016.61Zm.11-.954c.437 0 .863-.219 1.281-.656.426-.445.805-1.008 1.14-1.688.344-.687.618-1.425.829-2.218a9.187 9.187 0 0 0 .312-2.297c0-.664-.12-1.125-.36-1.375-.23-.258-.546-.39-.952-.39-.281 0-.57.1-.86.296-.28.2-.546.469-.796.813a8.84 8.84 0 0 0-.72 1.187c-.218.438-.413.906-.577 1.406-.168.493-.297.996-.391 1.516a8.84 8.84 0 0 0-.125 1.469c0 .71.113 1.21.344 1.5.226.293.52.437.875.437Zm14.38-8.531c-.304 0-.652.156-1.046.469-.387.312-.778.73-1.172 1.25a14.775 14.775 0 0 0-1.157 1.75 13.717 13.717 0 0 0-.921 2.015l-1.422 3.813h-1.672l1.406-4.36c.227-.695.422-1.289.578-1.78.156-.5.281-.915.375-1.25.094-.345.156-.618.188-.829.039-.207.062-.375.062-.5 0-.344-.11-.516-.328-.516-.137 0-.305.09-.5.266-.187.18-.383.414-.578.703a10.14 10.14 0 0 0-.563.969c-.18.367-.328.742-.453 1.125l-.562-.281c.437-1.313.93-2.274 1.484-2.89.551-.626 1.188-.938 1.906-.938.407 0 .692.117.86.343.176.23.265.618.265 1.157 0 .648-.109 1.226-.328 1.734l.063.062c.644-1.144 1.3-1.976 1.969-2.5.664-.53 1.39-.796 2.171-.796.563 0 .989.136 1.282.406.289.262.437.637.437 1.125a3.8 3.8 0 0 1-.047.562c-.03.2-.09.446-.172.735-.074.281-.18.62-.312 1.015-.125.399-.29.883-.484 1.453-.293.868-.532 1.59-.72 2.172-.187.586-.28.996-.28 1.235 0 .187.062.281.187.281.176 0 .438-.145.781-.438.344-.289.805-.757 1.391-1.406l.5.266a6.178 6.178 0 0 1-.797 1.125c-.324.355-.664.68-1.016.969a5.373 5.373 0 0 1-1.03.703c-.345.176-.641.265-.891.265a.885.885 0 0 1-.766-.406c-.18-.281-.266-.648-.266-1.11 0-.175.016-.359.047-.546.031-.188.094-.453.188-.797.101-.344.254-.8.453-1.375a113.2 113.2 0 0 1 .812-2.297c.114-.332.207-.613.282-.844.082-.226.144-.425.187-.593.04-.164.07-.313.094-.438.02-.133.031-.258.031-.375 0-.469-.172-.703-.516-.703Zm0 0"/>
  <path d="M129.763 218.031c-.324 1.293-.652 2.348-.984 3.172-.336.82-.695 1.469-1.078 1.938-.375.468-.781.789-1.219.968a3.904 3.904 0 0 1-1.469.266c-.539 0-.976-.14-1.312-.422-.344-.281-.516-.625-.516-1.031 0-.313.086-.563.25-.75.157-.188.383-.281.672-.281.274 0 .461.066.563.203.093.144.18.3.25.468.074.165.156.317.25.454.086.144.25.218.5.218.293 0 .562-.156.812-.468.242-.305.422-.7.547-1.188l2.766-10.734h-1.844l.25-.875h1.812c.282-1.133.583-2.102.907-2.907.332-.8.687-1.457 1.062-1.968.383-.52.79-.895 1.219-1.125.437-.239.906-.36 1.406-.36.75 0 1.364.157 1.844.47.477.312.719.702.719 1.171 0 .293-.078.543-.235.75-.156.2-.382.297-.672.297-.242 0-.43-.04-.562-.125a.936.936 0 0 1-.313-.344 2.28 2.28 0 0 1-.14-.437 2.861 2.861 0 0 0-.125-.438.817.817 0 0 0-.235-.344c-.105-.093-.257-.14-.453-.14-.25 0-.5.14-.75.422-.25.273-.492.652-.718 1.14-.23.48-.45 1.059-.657 1.735a28.96 28.96 0 0 0-.547 2.203h1.922l-.265.875h-1.86Zm10.361-1.141c-1.106 1.813-2.465 2.72-4.078 2.72-.875 0-1.547-.266-2.016-.798-.469-.539-.703-1.312-.703-2.312 0-.875.18-1.75.547-2.625a9.04 9.04 0 0 1 1.422-2.36 7.76 7.76 0 0 1 1.953-1.718c.726-.438 1.453-.656 2.172-.656.613 0 1.113.156 1.5.468.383.305.578.7.578 1.188 0 .437-.168.898-.5 1.375-.324.469-.774.914-1.344 1.328a10.81 10.81 0 0 1-1.984 1.14c-.75.344-1.555.61-2.406.797-.024.18-.04.356-.047.532-.012.168-.016.34-.016.515 0 1.387.484 2.078 1.453 2.078.469 0 .953-.18 1.453-.546.508-.375.977-.883 1.407-1.532Zm-1.078-6.859c-.336 0-.68.133-1.031.39-.356.25-.696.59-1.016 1.016a8.355 8.355 0 0 0-.89 1.454 8.822 8.822 0 0 0-.641 1.687 7.935 7.935 0 0 0 1.687-.64c.52-.27.969-.57 1.344-.907.375-.332.664-.687.875-1.062.219-.375.328-.754.328-1.14 0-.532-.219-.798-.656-.798Zm4.167 2.016c0-.414.078-.8.235-1.156a2.8 2.8 0 0 1 .656-.922 3.11 3.11 0 0 1 1-.61 3.557 3.557 0 0 1 1.265-.218c.614 0 1.125.152 1.532.453.406.304.61.699.61 1.187 0 .262-.075.469-.22.625-.148.149-.351.219-.61.219-.292 0-.5-.082-.624-.25a2.8 2.8 0 0 1-.328-.563 4.666 4.666 0 0 0-.281-.593c-.106-.176-.278-.266-.516-.266-.281 0-.516.121-.703.36-.188.242-.281.542-.281.906 0 .418.117.808.359 1.172.25.355.523.73.828 1.125.313.398.586.828.828 1.296.25.47.375 1.024.375 1.657 0 .437-.094.851-.281 1.234-.18.375-.422.703-.734.984a3.637 3.637 0 0 1-1.079.672 3.32 3.32 0 0 1-1.25.25c-.761 0-1.37-.164-1.828-.484-.445-.332-.672-.766-.672-1.297 0-.375.086-.664.25-.875a.877.877 0 0 1 .704-.312c.55 0 .863.375.937 1.125.031.406.094.68.188.812.101.137.3.203.593.203.457 0 .817-.133 1.078-.406.27-.281.407-.66.407-1.14 0-.508-.133-.962-.39-1.36-.25-.395-.528-.773-.83-1.14-.304-.376-.585-.77-.843-1.188-.25-.426-.375-.926-.375-1.5Zm7.255 0c0-.414.078-.8.234-1.156.157-.352.375-.66.657-.922a3.11 3.11 0 0 1 1-.61 3.557 3.557 0 0 1 1.265-.218c.614 0 1.125.152 1.532.453.406.304.609.699.609 1.187 0 .262-.074.469-.219.625-.148.149-.351.219-.61.219-.292 0-.5-.082-.624-.25a2.8 2.8 0 0 1-.328-.563 4.666 4.666 0 0 0-.282-.593c-.105-.176-.277-.266-.515-.266-.281 0-.516.121-.703.36-.188.242-.282.542-.282.906 0 .418.118.808.36 1.172.25.355.523.73.828 1.125.312.398.586.828.828 1.296.25.47.375 1.024.375 1.657 0 .437-.094.851-.281 1.234-.18.375-.422.703-.735.984a3.637 3.637 0 0 1-1.078.672 3.32 3.32 0 0 1-1.25.25c-.761 0-1.37-.164-1.828-.484-.445-.332-.672-.766-.672-1.297 0-.375.086-.664.25-.875a.877.877 0 0 1 .703-.312c.551 0 .864.375.938 1.125.031.406.094.68.187.812.102.137.301.203.594.203.457 0 .817-.133 1.078-.406.27-.281.407-.66.407-1.14a2.45 2.45 0 0 0-.391-1.36c-.25-.395-.527-.773-.828-1.14-.305-.376-.586-.77-.844-1.188-.25-.426-.375-.926-.375-1.5Zm8.286 1.093c.176-.5.301-.898.375-1.203.07-.3.11-.539.11-.718 0-.176-.032-.29-.094-.344-.055-.063-.11-.094-.172-.094-.137 0-.29.07-.453.203a3.774 3.774 0 0 0-.5.453c-.156.18-.305.356-.438.532-.125.18-.215.32-.265.422l-.547-.344a6.46 6.46 0 0 1 .64-.922 6.627 6.627 0 0 1 1.985-1.688c.363-.195.71-.296 1.047-.296.32 0 .562.093.718.28.157.18.235.509.235.985 0 .375-.117.875-.344 1.5-.219.617-.508 1.414-.86 2.39l-.702 1.923c-.024.062-.059.164-.11.297a10.818 10.818 0 0 0-.234.859 1.555 1.555 0 0 0-.047.328c0 .117.031.219.094.313.062.086.16.125.297.125.195 0 .394-.079.593-.235a3.8 3.8 0 0 0 .594-.562 7.14 7.14 0 0 0 .5-.657c.156-.218.273-.39.36-.515l.562.312a6.896 6.896 0 0 1-.61 1.016 6.857 6.857 0 0 1-.89 1.016c-.336.312-.7.574-1.094.78a2.549 2.549 0 0 1-1.219.313c-.367 0-.64-.093-.828-.28-.18-.188-.265-.505-.265-.954 0-.363.054-.758.172-1.188.125-.425.3-.96.53-1.609Zm2.797-7.124c-.324 0-.605-.11-.844-.329-.23-.218-.343-.5-.343-.843a1.2 1.2 0 0 1 .343-.86c.227-.25.508-.375.844-.375.352 0 .645.125.875.375.227.243.344.524.344.844 0 .336-.121.617-.36.844a1.2 1.2 0 0 1-.859.344Zm9.347 4.109c-.304 0-.652.156-1.047.469-.386.312-.777.73-1.171 1.25a14.775 14.775 0 0 0-1.157 1.75 13.717 13.717 0 0 0-.922 2.015l-1.421 3.813h-1.672l1.406-4.36c.226-.695.422-1.289.578-1.78.156-.5.281-.915.375-1.25.094-.345.156-.618.188-.829.039-.207.062-.375.062-.5 0-.344-.11-.516-.328-.516-.137 0-.305.09-.5.266-.188.18-.383.414-.578.703a10.14 10.14 0 0 0-.563.969c-.18.367-.328.742-.453 1.125l-.562-.281c.437-1.313.93-2.274 1.484-2.89.55-.626 1.188-.938 1.906-.938.407 0 .692.117.86.343.175.23.265.618.265 1.157 0 .648-.11 1.226-.328 1.734l.063.062c.644-1.144 1.3-1.976 1.968-2.5.664-.53 1.391-.796 2.172-.796.563 0 .989.136 1.282.406.289.262.437.637.437 1.125a3.8 3.8 0 0 1-.047.562c-.031.2-.09.446-.172.735-.074.281-.18.62-.312 1.015-.125.399-.29.883-.485 1.453-.293.868-.53 1.59-.718 2.172-.188.586-.282.996-.282 1.235 0 .187.063.281.188.281.176 0 .437-.145.781-.438.344-.289.805-.757 1.39-1.406l.5.266c-.21.387-.476.762-.796 1.125-.324.355-.664.68-1.016.969a5.373 5.373 0 0 1-1.031.703c-.344.176-.64.265-.89.265a.885.885 0 0 1-.766-.406c-.18-.281-.266-.648-.266-1.11 0-.175.016-.359.047-.546.031-.188.094-.453.188-.797.101-.344.253-.8.453-1.375.195-.582.468-1.348.812-2.297.113-.332.207-.613.281-.844.082-.226.145-.425.188-.593.039-.164.07-.313.094-.438.02-.133.03-.258.03-.375 0-.469-.171-.703-.515-.703Zm12.127 10.687c0 .54-.121 1.032-.36 1.47-.23.445-.562.82-1 1.124-.437.313-.968.551-1.593.719a8.14 8.14 0 0 1-2.094.25c-.7 0-1.336-.063-1.906-.188-.574-.125-1.063-.312-1.469-.562-.414-.242-.734-.523-.953-.844a1.908 1.908 0 0 1-.328-1.094c0-.523.168-.953.5-1.296.336-.344.762-.516 1.281-.516.156 0 .3.02.438.062.144.04.32.11.53.204-.71.289-1.062.843-1.062 1.656 0 .539.27.96.813 1.265.539.301 1.281.454 2.219.454a5.52 5.52 0 0 0 1.406-.172 4.593 4.593 0 0 0 1.11-.438c.312-.18.55-.383.718-.61.176-.218.266-.433.266-.64 0-.367-.215-.687-.641-.969-.418-.28-1.016-.496-1.797-.64-1.387-.242-2.402-.516-3.047-.828-.648-.32-.969-.77-.969-1.344 0-.363.16-.672.485-.922.32-.258.906-.516 1.75-.766l.031-.078c-.969-.687-1.453-1.57-1.453-2.656 0-.582.117-1.133.36-1.656.25-.531.577-.992.984-1.39a4.307 4.307 0 0 1 1.453-.938 4.518 4.518 0 0 1 1.734-.344c.945 0 1.738.34 2.375 1.016.594-.664 1.172-1 1.735-1 .406 0 .757.125 1.062.375.3.242.453.527.453.859 0 .25-.09.465-.265.64a.845.845 0 0 1-.625.25c-.188 0-.34-.038-.454-.124a2.03 2.03 0 0 1-.28-.266 1.894 1.894 0 0 0-.25-.281.579.579 0 0 0-.391-.125.62.62 0 0 0-.25.047 3.083 3.083 0 0 0-.422.265c.062.18.101.344.125.5.03.156.047.356.047.594 0 1.398-.387 2.512-1.157 3.344-.773.836-1.84 1.304-3.203 1.406-.605.055-1.039.133-1.297.234-.261.094-.39.246-.39.453 0 .262.14.461.422.594.289.137.648.25 1.078.344.425.086.89.172 1.39.266.5.086.961.214 1.39.39.427.168.782.399 1.063.688.29.3.438.707.438 1.218Zm-4-5.03c.312 0 .613-.118.906-.36.29-.238.551-.555.781-.953.239-.407.426-.86.563-1.36a5.745 5.745 0 0 0 .219-1.578c0-.5-.118-.898-.344-1.203-.23-.3-.531-.453-.906-.453-.293 0-.59.133-.89.39a4.201 4.201 0 0 0-.83 1 5.87 5.87 0 0 0-.608 1.391 5.408 5.408 0 0 0-.22 1.516c0 .48.118.871.36 1.172.238.293.563.437.969.437Zm23.91.046c-.45.668-.887 1.246-1.313 1.734a6.86 6.86 0 0 1-1.328 1.172 4.96 4.96 0 0 1-1.438.672 6.509 6.509 0 0 1-1.64.203c-.867 0-1.64-.136-2.328-.406a4.7 4.7 0 0 1-1.75-1.172 5.495 5.495 0 0 1-1.094-1.875c-.262-.726-.39-1.55-.39-2.469 0-1.207.218-2.359.656-3.453a9.953 9.953 0 0 1 1.78-2.906 8.79 8.79 0 0 1 2.595-2.016c.976-.5 2-.75 3.062-.75.613 0 1.195.094 1.75.282.55.187 1.11.476 1.672.86l.719-.954h.703l-.875 4.781h-.735c-.093-1.383-.386-2.39-.875-3.015-.492-.633-1.226-.954-2.203-.954-.843 0-1.633.211-2.36.625-.718.418-1.343.997-1.874 1.735-.531.73-.953 1.594-1.266 2.594a10.821 10.821 0 0 0-.453 3.187c0 3.156 1.227 4.734 3.688 4.734.914 0 1.742-.242 2.484-.734.738-.5 1.445-1.281 2.125-2.344Zm7.971-2.328c.219-.645.375-1.156.469-1.531.094-.383.14-.723.14-1.016 0-.289-.046-.5-.14-.625-.094-.125-.258-.187-.484-.187-.399 0-.79.156-1.172.468-.375.305-.762.778-1.156 1.422-.387.649-.79 1.477-1.204 2.485-.418 1-.859 2.199-1.328 3.593l-.437 1.313h-1.61l3.782-12.906c.082-.32.148-.602.203-.844.05-.238.078-.43.078-.578 0-.25-.121-.426-.36-.532-.242-.101-.683-.164-1.328-.187l.125-.766h3.891l-2.172 7.36.063.031c.406-.594.875-1.05 1.406-1.375a3.188 3.188 0 0 1 1.672-.484c.613 0 1.078.18 1.39.53.313.356.47.872.47 1.548 0 .418-.063.906-.188 1.468a15.364 15.364 0 0 1-.594 1.922c-.25.68-.45 1.215-.594 1.61a27.28 27.28 0 0 0-.297.906c-.062.21-.105.355-.125.437a.622.622 0 0 0-.031.188c0 .293.125.437.375.437s.563-.148.938-.453c.375-.3.75-.718 1.125-1.25l.546.407c-.21.367-.464.714-.765 1.046a5.531 5.531 0 0 1-.969.875c-.344.243-.7.434-1.062.579-.368.144-.704.218-1.016.218-.344 0-.594-.093-.75-.28-.149-.188-.219-.493-.219-.923 0-.207.016-.43.047-.672.04-.25.11-.55.203-.906.094-.363.223-.805.39-1.328.177-.531.407-1.195.688-2Zm4.555-1.531c.133-.313.344-.633.625-.969.29-.344.602-.648.938-.922a6.1 6.1 0 0 1 1.015-.672c.344-.176.645-.265.907-.265.3 0 .52.117.656.343.144.23.219.594.219 1.094 0 .211-.012.406-.032.594a9.782 9.782 0 0 1-.11.672l.063.047a5.02 5.02 0 0 1 .641-1.079c.281-.351.582-.664.906-.937a4.64 4.64 0 0 1 .985-.672c.343-.164.66-.25.953-.25.363 0 .672.121.922.36.25.23.375.515.375.859 0 .324-.106.594-.313.812-.21.22-.48.328-.812.328-.211 0-.375-.035-.5-.109a3.018 3.018 0 0 1-.313-.25 6.62 6.62 0 0 1-.234-.234.396.396 0 0 0-.281-.11c-.25 0-.54.164-.86.485-.312.324-.64.765-.984 1.328a19.367 19.367 0 0 0-1.016 1.953 24.49 24.49 0 0 0-.922 2.422l-.86 2.625h-1.765l1.235-3.938.593-1.89c.165-.508.29-.93.375-1.266.094-.332.157-.594.188-.781.031-.195.047-.363.047-.5 0-.281-.094-.422-.281-.422-.125 0-.282.055-.47.156a2.528 2.528 0 0 0-.546.375c-.18.156-.344.328-.5.516a2.57 2.57 0 0 0-.36.547Zm10.91 1.171c.176-.5.301-.898.375-1.203.07-.3.11-.539.11-.718 0-.176-.032-.29-.094-.344-.055-.063-.11-.094-.172-.094-.137 0-.29.07-.453.203a3.774 3.774 0 0 0-.5.453c-.156.18-.305.356-.438.532-.125.18-.214.32-.265.422l-.547-.344a6.46 6.46 0 0 1 .64-.922 6.627 6.627 0 0 1 1.985-1.688c.363-.195.71-.296 1.047-.296.32 0 .562.093.718.28.157.18.235.509.235.985 0 .375-.117.875-.344 1.5-.219.617-.508 1.414-.86 2.39l-.702 1.923c-.024.062-.059.164-.11.297a10.818 10.818 0 0 0-.234.859 1.555 1.555 0 0 0-.047.328c0 .117.031.219.094.313.062.086.16.125.297.125.195 0 .394-.079.593-.235a3.8 3.8 0 0 0 .594-.562 7.14 7.14 0 0 0 .5-.657c.156-.218.274-.39.36-.515l.562.312a6.896 6.896 0 0 1-.61 1.016 6.857 6.857 0 0 1-.89 1.016c-.336.312-.7.574-1.094.78a2.549 2.549 0 0 1-1.219.313c-.367 0-.64-.093-.828-.28-.18-.188-.265-.505-.265-.954 0-.363.054-.758.172-1.188.125-.425.3-.96.53-1.609Zm2.797-7.124c-.324 0-.605-.11-.844-.329-.23-.218-.343-.5-.343-.843a1.2 1.2 0 0 1 .343-.86c.227-.25.508-.375.844-.375.352 0 .645.125.875.375.227.243.344.524.344.844 0 .336-.121.617-.36.844a1.2 1.2 0 0 1-.859.344Zm2.722 6.031c0-.414.078-.8.235-1.156a2.8 2.8 0 0 1 .656-.922 3.11 3.11 0 0 1 1-.61 3.557 3.557 0 0 1 1.266-.218c.613 0 1.125.152 1.53.453.407.304.61.699.61 1.187 0 .262-.074.469-.219.625-.148.149-.351.219-.609.219-.293 0-.5-.082-.625-.25a2.8 2.8 0 0 1-.328-.563 4.666 4.666 0 0 0-.281-.593c-.106-.176-.278-.266-.516-.266-.281 0-.516.121-.703.36-.188.242-.281.542-.281.906 0 .418.117.808.36 1.172.25.355.523.73.827 1.125.313.398.586.828.828 1.296.25.47.375 1.024.375 1.657 0 .437-.093.851-.28 1.234-.18.375-.423.703-.735.984a3.637 3.637 0 0 1-1.078.672 3.32 3.32 0 0 1-1.25.25c-.762 0-1.371-.164-1.829-.484-.445-.332-.671-.766-.671-1.297 0-.375.086-.664.25-.875a.877.877 0 0 1 .703-.312c.55 0 .863.375.937 1.125.031.406.094.68.188.812.101.137.3.203.593.203.458 0 .817-.133 1.079-.406.27-.281.406-.66.406-1.14 0-.508-.133-.962-.39-1.36-.25-.395-.528-.773-.829-1.14-.305-.376-.586-.77-.844-1.188-.25-.426-.375-.926-.375-1.5Zm10.255-1.141-1.578 5.235c-.21.687-.324 1.21-.344 1.562a.6.6 0 0 0 .078.313c.063.086.165.125.313.125.227 0 .469-.082.719-.25.25-.176.492-.38.734-.61.238-.238.445-.476.625-.719.188-.25.32-.445.406-.593l.563.328a6.363 6.363 0 0 1-.828 1.25c-.324.398-.672.75-1.047 1.062a5.796 5.796 0 0 1-1.11.735c-.375.176-.714.265-1.015.265-.45 0-.774-.093-.969-.28-.2-.188-.297-.505-.297-.954 0-.25.04-.586.125-1.016.094-.437.25-1.03.469-1.78l1.406-4.673h-1.64l.25-.875h1.656l1-3.281h1.75l-.985 3.281h2.063l-.266.875Zm3.779 8.704c-.356 0-.664-.122-.922-.36-.262-.238-.39-.55-.39-.938 0-.375.124-.69.374-.953.258-.27.57-.406.938-.406.394 0 .718.137.968.406.25.262.375.575.375.938 0 .367-.136.68-.406.937a1.31 1.31 0 0 1-.937.375Zm13.366-4.126a16.06 16.06 0 0 0-.297 1.172 4.02 4.02 0 0 0-.11.766c0 .762.723 1.14 2.172 1.14l-.203.86h-6.328l.219-.766c.601 0 1.093-.176 1.468-.531.383-.363.688-.941.907-1.734l2.25-8.391c.164-.613.25-1.094.25-1.438 0-.187-.032-.343-.094-.468a.75.75 0 0 0-.328-.313 2.082 2.082 0 0 0-.61-.187c-.25-.04-.57-.067-.953-.078l.203-.766h5.297c1.532 0 2.735.293 3.61.875.875.574 1.312 1.375 1.312 2.406 0 .524-.101 1-.297 1.438-.199.43-.484.812-.859 1.156a5.031 5.031 0 0 1-1.313.875 7.316 7.316 0 0 1-1.703.547l1.407 3.484c.27.649.507 1.18.718 1.594.207.406.426.727.657.953.226.219.484.371.765.453.29.086.645.125 1.063.125l-.219.766h-3.61l-2.796-7.14h-1.688Zm1.14-4.172h.938a6.81 6.81 0 0 0 1.828-.234c.57-.156 1.055-.375 1.453-.656.406-.281.719-.629.937-1.047.227-.426.344-.91.344-1.453 0-.758-.234-1.332-.703-1.719-.469-.394-1.152-.594-2.047-.594-.262 0-.48.028-.656.078a1.013 1.013 0 0 0-.438.235 1.687 1.687 0 0 0-.312.469 3.906 3.906 0 0 0-.234.75Zm15.823 5.578c-1.105 1.813-2.465 2.72-4.078 2.72-.875 0-1.547-.266-2.016-.798-.469-.539-.703-1.312-.703-2.312 0-.875.18-1.75.547-2.625a9.04 9.04 0 0 1 1.422-2.36 7.76 7.76 0 0 1 1.953-1.718c.727-.438 1.453-.656 2.172-.656.613 0 1.113.156 1.5.468.383.305.578.7.578 1.188 0 .437-.168.898-.5 1.375-.324.469-.773.914-1.344 1.328a10.81 10.81 0 0 1-1.984 1.14c-.75.344-1.555.61-2.406.797-.024.18-.04.356-.047.532-.012.168-.016.34-.016.515 0 1.387.484 2.078 1.453 2.078.469 0 .953-.18 1.453-.546.508-.375.977-.883 1.407-1.532Zm-1.078-6.859c-.336 0-.68.133-1.031.39-.356.25-.696.59-1.016 1.016a8.355 8.355 0 0 0-.89 1.454 8.822 8.822 0 0 0-.641 1.687 7.935 7.935 0 0 0 1.687-.64c.52-.27.969-.57 1.344-.907.375-.332.664-.687.875-1.062.219-.375.328-.754.328-1.14 0-.532-.219-.798-.656-.798Zm7.215-4.015a1.21 1.21 0 0 1-.845-.329c-.23-.218-.343-.5-.343-.843a1.2 1.2 0 0 1 .343-.86c.227-.25.508-.375.844-.375.352 0 .645.125.875.375.227.243.344.524.344.844 0 .336-.121.617-.36.844a1.2 1.2 0 0 1-.859.344Zm-2.188 7.109c.125-.5.218-.906.28-1.219.071-.32.11-.57.11-.75 0-.25-.094-.375-.281-.375-.137 0-.29.07-.453.203a3.774 3.774 0 0 0-.5.453 7.05 7.05 0 0 0-.422.532c-.125.18-.215.32-.266.422l-.547-.344a5.42 5.42 0 0 1 .625-.922c.282-.344.594-.66.938-.953.344-.29.695-.535 1.062-.735.364-.195.711-.296 1.047-.296.633 0 .953.355.953 1.062 0 .418-.09.969-.265 1.656a135.29 135.29 0 0 1-.64 2.485l-1.595 5.718a6.86 6.86 0 0 1-.656 1.594c-.281.52-.61.977-.984 1.375a5.44 5.44 0 0 1-1.203.969 2.67 2.67 0 0 1-1.344.375c-.531 0-.969-.14-1.313-.422-.343-.281-.515-.625-.515-1.031 0-.344.086-.621.25-.828.168-.2.398-.297.687-.297.274 0 .47.07.594.219.125.144.23.312.313.5.086.187.171.351.265.5a.425.425 0 0 0 .39.218c.306 0 .575-.156.813-.468.23-.305.407-.7.532-1.188Zm6.936 6.485c-.43 0-.828-.087-1.203-.25a2.952 2.952 0 0 1-.984-.75 3.731 3.731 0 0 1-.672-1.22 4.833 4.833 0 0 1-.25-1.609c0-.82.156-1.633.468-2.437a7.66 7.66 0 0 1 1.235-2.125 6.286 6.286 0 0 1 1.734-1.5c.656-.383 1.332-.578 2.031-.578.457 0 .88.09 1.266.265.383.168.711.414.984.735.282.324.5.71.657 1.156.156.45.234.95.234 1.5 0 .805-.164 1.61-.484 2.422a8.37 8.37 0 0 1-1.235 2.187 6.882 6.882 0 0 1-1.765 1.594c-.657.406-1.328.61-2.016.61Zm.11-.954c.437 0 .863-.219 1.28-.656.426-.445.805-1.008 1.141-1.688.344-.687.618-1.425.828-2.218a9.19 9.19 0 0 0 .313-2.297c0-.664-.121-1.125-.36-1.375-.23-.258-.546-.39-.953-.39-.28 0-.57.1-.859.296-.281.2-.547.469-.797.813a8.84 8.84 0 0 0-.719 1.187c-.218.438-.414.906-.578 1.406-.168.493-.297.996-.39 1.516a8.84 8.84 0 0 0-.125 1.469c0 .71.113 1.21.343 1.5.227.293.52.437.875.437Zm8.786-5.516c.176-.5.301-.898.375-1.203.07-.3.11-.539.11-.718 0-.176-.032-.29-.094-.344-.055-.063-.11-.094-.172-.094-.137 0-.289.07-.453.203a3.774 3.774 0 0 0-.5.453c-.156.18-.305.356-.438.532-.125.18-.214.32-.265.422l-.547-.344a6.46 6.46 0 0 1 .64-.922 6.627 6.627 0 0 1 1.985-1.688c.363-.195.71-.296 1.047-.296.32 0 .562.093.719.28.156.18.234.509.234.985 0 .375-.117.875-.344 1.5-.219.617-.508 1.414-.86 2.39l-.702 1.923c-.024.062-.059.164-.11.297a10.818 10.818 0 0 0-.234.859 1.555 1.555 0 0 0-.047.328c0 .117.031.219.094.313.062.086.16.125.297.125.195 0 .394-.079.593-.235a3.8 3.8 0 0 0 .594-.562 7.14 7.14 0 0 0 .5-.657c.156-.218.274-.39.36-.515l.562.312a6.896 6.896 0 0 1-.61 1.016 6.857 6.857 0 0 1-.89 1.016c-.336.312-.7.574-1.094.78a2.549 2.549 0 0 1-1.218.313c-.368 0-.641-.093-.829-.28-.18-.188-.265-.505-.265-.954 0-.363.055-.758.172-1.188.125-.425.3-.96.531-1.609Zm2.797-7.124c-.324 0-.605-.11-.844-.329-.23-.218-.343-.5-.343-.843a1.2 1.2 0 0 1 .343-.86c.227-.25.508-.375.844-.375.352 0 .645.125.875.375.227.243.344.524.344.844 0 .336-.121.617-.36.844a1.2 1.2 0 0 1-.859.344Zm8.363 10.344c-.543 1.054-1.168 1.859-1.875 2.421-.7.555-1.45.828-2.25.828-.824 0-1.484-.28-1.984-.843-.492-.563-.735-1.317-.735-2.266 0-.55.082-1.117.25-1.703a9.435 9.435 0 0 1 .657-1.688 8.947 8.947 0 0 1 1-1.547c.382-.488.789-.91 1.218-1.265a6.023 6.023 0 0 1 1.328-.844 3.388 3.388 0 0 1 1.375-.312c.614 0 1.114.168 1.5.5.395.324.594.734.594 1.234 0 .312-.094.57-.281.766a.9.9 0 0 1-.703.296c-.293 0-.531-.085-.719-.265a.931.931 0 0 1-.281-.688c0-.164.023-.297.078-.39a.674.674 0 0 0 .078-.297c0-.176-.152-.266-.453-.266-.418 0-.844.2-1.281.594-.43.398-.82.906-1.172 1.531a10.145 10.145 0 0 0-.86 2.078 8.41 8.41 0 0 0-.328 2.297c0 .606.114 1.086.344 1.438.238.343.566.515.984.515.227 0 .47-.062.72-.187s.5-.297.75-.516c.257-.226.503-.492.734-.797.238-.3.453-.64.64-1.015Zm3.788-3.22c.176-.5.3-.898.375-1.203.07-.3.11-.539.11-.718 0-.176-.032-.29-.094-.344-.055-.063-.11-.094-.172-.094-.137 0-.29.07-.453.203a3.774 3.774 0 0 0-.5.453 9.9 9.9 0 0 0-.438.532c-.125.18-.215.32-.265.422l-.547-.344a6.46 6.46 0 0 1 .64-.922 6.627 6.627 0 0 1 1.985-1.688c.363-.195.71-.296 1.047-.296.32 0 .562.093.718.28.157.18.235.509.235.985 0 .375-.117.875-.344 1.5-.219.617-.508 1.414-.86 2.39l-.703 1.923c-.023.062-.058.164-.109.297a10.818 10.818 0 0 0-.234.859 1.555 1.555 0 0 0-.047.328c0 .117.031.219.094.313.062.086.16.125.296.125.196 0 .395-.079.594-.235a3.8 3.8 0 0 0 .594-.562c.187-.219.352-.438.5-.657.156-.218.273-.39.36-.515l.562.312a6.896 6.896 0 0 1-.61 1.016 6.857 6.857 0 0 1-.89 1.016c-.336.312-.7.574-1.094.78a2.549 2.549 0 0 1-1.219.313c-.367 0-.64-.093-.828-.28-.18-.188-.265-.505-.265-.954 0-.363.054-.758.171-1.188.125-.425.301-.96.532-1.609Zm2.797-7.124c-.324 0-.605-.11-.844-.329-.23-.218-.344-.5-.344-.843a1.2 1.2 0 0 1 .344-.86c.227-.25.508-.375.844-.375.352 0 .645.125.875.375.227.243.344.524.344.844 0 .336-.121.617-.36.844a1.2 1.2 0 0 1-.859.344Zm9.347 4.109c-.304 0-.652.156-1.047.469-.386.312-.777.73-1.172 1.25a14.775 14.775 0 0 0-1.156 1.75 13.717 13.717 0 0 0-.922 2.015l-1.422 3.813h-1.671l1.406-4.36c.226-.695.422-1.289.578-1.78.156-.5.281-.915.375-1.25.094-.345.156-.618.187-.829.04-.207.063-.375.063-.5 0-.344-.11-.516-.328-.516-.137 0-.305.09-.5.266-.188.18-.383.414-.578.703a10.14 10.14 0 0 0-.563.969c-.18.367-.328.742-.453 1.125l-.562-.281c.437-1.313.93-2.274 1.484-2.89.55-.626 1.187-.938 1.906-.938.406 0 .692.117.86.343.175.23.265.618.265 1.157 0 .648-.11 1.226-.328 1.734l.063.062c.644-1.144 1.3-1.976 1.968-2.5.664-.53 1.391-.796 2.172-.796.563 0 .988.136 1.281.406.29.262.438.637.438 1.125a3.8 3.8 0 0 1-.047.562c-.031.2-.09.446-.172.735-.074.281-.18.62-.312 1.015-.125.399-.29.883-.485 1.453-.293.868-.53 1.59-.718 2.172-.188.586-.282.996-.282 1.235 0 .187.063.281.188.281.176 0 .437-.145.781-.438.344-.289.805-.757 1.39-1.406l.5.266c-.21.387-.476.762-.796 1.125-.324.355-.664.68-1.016.969a5.373 5.373 0 0 1-1.031.703c-.344.176-.64.265-.89.265a.885.885 0 0 1-.766-.406c-.18-.281-.266-.648-.266-1.11 0-.175.016-.359.047-.546a8.83 8.83 0 0 1 .187-.797c.102-.344.254-.8.454-1.375.195-.582.468-1.348.812-2.297.113-.332.207-.613.281-.844.082-.226.145-.425.188-.593.039-.164.07-.313.094-.438.02-.133.03-.258.03-.375 0-.469-.171-.703-.515-.703Zm12.127 10.687c0 .54-.121 1.032-.36 1.47-.23.445-.562.82-1 1.124-.437.313-.968.551-1.593.719a8.14 8.14 0 0 1-2.094.25c-.7 0-1.336-.063-1.906-.188-.574-.125-1.063-.312-1.469-.562-.414-.242-.734-.523-.953-.844a1.908 1.908 0 0 1-.328-1.094c0-.523.168-.953.5-1.296.336-.344.761-.516 1.281-.516.156 0 .3.02.437.062.145.04.32.11.532.204-.711.289-1.063.843-1.063 1.656 0 .539.27.96.813 1.265.539.301 1.281.454 2.218.454.508 0 .977-.059 1.407-.172a4.593 4.593 0 0 0 1.11-.438c.312-.18.55-.383.718-.61.176-.218.265-.433.265-.64 0-.367-.214-.687-.64-.969-.418-.28-1.016-.496-1.797-.64-1.387-.242-2.402-.516-3.047-.828-.648-.32-.969-.77-.969-1.344 0-.363.16-.672.485-.922.32-.258.906-.516 1.75-.766l.031-.078c-.969-.687-1.453-1.57-1.453-2.656 0-.582.117-1.133.36-1.656.25-.531.577-.992.984-1.39a4.307 4.307 0 0 1 1.453-.938 4.518 4.518 0 0 1 1.734-.344c.945 0 1.738.34 2.375 1.016.594-.664 1.172-1 1.734-1 .407 0 .758.125 1.063.375.3.242.453.527.453.859 0 .25-.09.465-.266.64a.845.845 0 0 1-.625.25c-.187 0-.34-.038-.453-.124a2.03 2.03 0 0 1-.28-.266 1.894 1.894 0 0 0-.25-.281.579.579 0 0 0-.392-.125.62.62 0 0 0-.25.047 3.083 3.083 0 0 0-.421.265 3.239 3.239 0 0 1 .171 1.094c0 1.398-.386 2.512-1.156 3.344-.773.836-1.84 1.304-3.203 1.406-.605.055-1.039.133-1.297.234-.261.094-.39.246-.39.453 0 .262.14.461.421.594.29.137.649.25 1.079.344.425.086.89.172 1.39.266.5.086.961.214 1.39.39.427.168.782.399 1.063.688.29.3.438.707.438 1.218Zm-4-5.03c.312 0 .613-.118.906-.36.29-.238.55-.555.781-.953.239-.407.426-.86.563-1.36a5.745 5.745 0 0 0 .219-1.578c0-.5-.118-.898-.344-1.203-.23-.3-.531-.453-.906-.453-.293 0-.59.133-.891.39a4.201 4.201 0 0 0-.828 1 5.87 5.87 0 0 0-.61 1.391 5.408 5.408 0 0 0-.218 1.516c0 .48.117.871.36 1.172.237.293.562.437.968.437Zm13.49-2.642c.176-.5.3-.898.375-1.203.07-.3.11-.539.11-.718 0-.176-.032-.29-.094-.344-.055-.063-.11-.094-.172-.094-.137 0-.29.07-.453.203a3.774 3.774 0 0 0-.5.453 9.9 9.9 0 0 0-.438.532c-.125.18-.215.32-.265.422l-.547-.344a6.46 6.46 0 0 1 .64-.922 6.627 6.627 0 0 1 1.985-1.688c.363-.195.71-.296 1.047-.296.32 0 .562.093.718.28.157.18.235.509.235.985 0 .375-.118.875-.344 1.5-.219.617-.508 1.414-.86 2.39l-.703 1.923c-.023.062-.058.164-.109.297a10.818 10.818 0 0 0-.234.859 1.555 1.555 0 0 0-.047.328c0 .117.031.219.094.313.062.086.16.125.296.125.196 0 .395-.079.594-.235a3.8 3.8 0 0 0 .594-.562c.187-.219.351-.438.5-.657.156-.218.273-.39.36-.515l.562.312a6.896 6.896 0 0 1-.61 1.016 6.857 6.857 0 0 1-.89 1.016c-.336.312-.7.574-1.094.78a2.549 2.549 0 0 1-1.219.313c-.367 0-.64-.093-.828-.28-.18-.188-.265-.505-.265-.954 0-.363.054-.758.171-1.188.125-.425.301-.96.532-1.609Zm2.797-7.124c-.324 0-.606-.11-.844-.329-.23-.218-.344-.5-.344-.843a1.2 1.2 0 0 1 .344-.86c.227-.25.508-.375.844-.375.351 0 .644.125.875.375.226.243.344.524.344.844 0 .336-.121.617-.36.844a1.2 1.2 0 0 1-.86.344Zm9.347 4.109c-.305 0-.652.156-1.047.469-.386.312-.777.73-1.172 1.25a14.775 14.775 0 0 0-1.156 1.75 13.717 13.717 0 0 0-.922 2.015l-1.422 3.813h-1.671l1.406-4.36c.226-.695.422-1.289.578-1.78.156-.5.281-.915.375-1.25.094-.345.156-.618.187-.829.04-.207.063-.375.063-.5 0-.344-.11-.516-.328-.516-.137 0-.305.09-.5.266-.188.18-.383.414-.578.703a10.14 10.14 0 0 0-.563.969c-.18.367-.328.742-.453 1.125l-.562-.281c.437-1.313.93-2.274 1.484-2.89.55-.626 1.187-.938 1.906-.938.406 0 .692.117.86.343.175.23.265.618.265 1.157 0 .648-.11 1.226-.328 1.734l.063.062c.644-1.144 1.3-1.976 1.968-2.5.664-.53 1.39-.796 2.172-.796.563 0 .988.136 1.281.406.29.262.438.637.438 1.125a3.8 3.8 0 0 1-.047.562c-.031.2-.09.446-.172.735-.074.281-.18.62-.312 1.015-.125.399-.29.883-.485 1.453-.293.868-.531 1.59-.718 2.172-.188.586-.282.996-.282 1.235 0 .187.063.281.188.281.176 0 .437-.145.781-.438.344-.289.805-.757 1.39-1.406l.5.266c-.21.387-.476.762-.796 1.125-.324.355-.664.68-1.016.969a5.373 5.373 0 0 1-1.031.703c-.344.176-.64.265-.89.265a.885.885 0 0 1-.766-.406c-.18-.281-.266-.648-.266-1.11 0-.175.016-.359.047-.546a8.83 8.83 0 0 1 .187-.797c.102-.344.254-.8.454-1.375.195-.582.468-1.348.812-2.297.113-.332.207-.613.281-.844.082-.226.145-.425.188-.593.039-.164.07-.313.094-.438a2.67 2.67 0 0 0 .03-.375c0-.469-.171-.703-.515-.703Zm15.905 8.453c.531 0 1.02-.07 1.469-.219a3.48 3.48 0 0 0 1.171-.64 2.82 2.82 0 0 0 .782-1.063c.187-.414.28-.906.28-1.469 0-.5-.108-.867-.327-1.109-.219-.25-.649-.375-1.281-.375l.171-.734h5.22l-.188.734c-.274 0-.5.024-.688.063a.901.901 0 0 0-.484.328c-.137.168-.274.422-.406.765a12.85 12.85 0 0 0-.407 1.407 34.61 34.61 0 0 0-.297 1.109 5.495 5.495 0 0 0-.14 1.11c-.293.054-.602.14-.922.265a32.65 32.65 0 0 1-1.11.375c-.417.125-.89.234-1.421.328a9.902 9.902 0 0 1-1.844.156c-.867 0-1.64-.136-2.328-.406a4.7 4.7 0 0 1-1.75-1.172 5.495 5.495 0 0 1-1.094-1.875c-.262-.726-.39-1.55-.39-2.469 0-1.207.226-2.359.687-3.453a9.882 9.882 0 0 1 1.875-2.906 9.095 9.095 0 0 1 2.703-2.016c1.02-.5 2.086-.75 3.203-.75a6.67 6.67 0 0 1 1.953.282 7.774 7.774 0 0 1 1.86.86l.703-.954h.703l-.672 4.203h-.734c-.125-1.176-.48-2.035-1.063-2.578-.574-.54-1.437-.813-2.594-.813-.886 0-1.714.211-2.484.625a6.35 6.35 0 0 0-2.016 1.735c-.562.73-1.011 1.594-1.343 2.594a10.2 10.2 0 0 0-.485 3.187c0 3.25 1.227 4.875 3.688 4.875Zm8.436-6.609c.133-.313.344-.633.625-.969.289-.344.601-.648.937-.922.332-.27.672-.492 1.016-.672.344-.176.644-.265.906-.265.3 0 .52.117.656.343.145.23.22.594.22 1.094 0 .211-.013.406-.032.594a9.782 9.782 0 0 1-.11.672l.063.047a5.02 5.02 0 0 1 .64-1.079c.282-.351.583-.664.907-.937a4.64 4.64 0 0 1 .984-.672c.344-.164.66-.25.953-.25.364 0 .672.121.922.36.25.23.375.515.375.859 0 .324-.105.594-.312.812-.211.22-.48.328-.813.328-.21 0-.375-.035-.5-.109a3.018 3.018 0 0 1-.312-.25 6.62 6.62 0 0 1-.235-.234.396.396 0 0 0-.28-.11c-.25 0-.54.164-.86.485-.313.324-.64.765-.985 1.328a19.367 19.367 0 0 0-1.015 1.953 24.49 24.49 0 0 0-.922 2.422l-.86 2.625h-1.765l1.234-3.938c.239-.757.438-1.39.594-1.89.164-.508.29-.93.375-1.266.094-.332.156-.594.188-.781.03-.195.046-.363.046-.5 0-.281-.093-.422-.28-.422-.126 0-.282.055-.47.156a2.528 2.528 0 0 0-.546.375c-.18.156-.344.328-.5.516a2.57 2.57 0 0 0-.36.547Zm14.414-1.844c-.492 0-.992.227-1.5.672-.512.437-.98.992-1.406 1.656a10.747 10.747 0 0 0-1.031 2.156c-.262.774-.39 1.485-.39 2.141 0 .46.093.828.28 1.11a.912.912 0 0 0 .782.406c.289 0 .593-.114.906-.344.32-.238.633-.55.937-.938.301-.394.582-.836.844-1.328.27-.5.504-1.008.703-1.531.207-.531.367-1.05.485-1.563.113-.507.171-.968.171-1.375 0-.32-.074-.578-.218-.765a.654.654 0 0 0-.563-.297Zm1.953-.797h1.578l-1.078 2.906a36.056 36.056 0 0 0-.984 3.141c-.137.5-.242.965-.313 1.39a5.886 5.886 0 0 0-.109.922c0 .368.117.547.36.547.175 0 .43-.18.765-.547.344-.363.723-.835 1.14-1.421l.5.39c-.542.938-1.12 1.668-1.734 2.188-.617.511-1.21.765-1.78.765-.294 0-.517-.109-.673-.328-.156-.219-.234-.582-.234-1.094v-.39c.008-.156.023-.363.047-.625l-.078-.016a5.342 5.342 0 0 1-.672.985 5.87 5.87 0 0 1-.844.78 3.658 3.658 0 0 1-.953.5 2.763 2.763 0 0 1-.969.188c-.648 0-1.152-.242-1.516-.734-.367-.488-.546-1.164-.546-2.031 0-.875.18-1.766.546-2.672.375-.914.852-1.742 1.438-2.485a8.14 8.14 0 0 1 1.937-1.828c.72-.476 1.415-.718 2.094-.718.426 0 .77.101 1.031.296.27.2.489.516.657.954Zm9.682 7.032c-.543 1.054-1.168 1.859-1.875 2.421-.699.555-1.449.828-2.25.828-.824 0-1.484-.28-1.984-.843-.492-.563-.735-1.317-.735-2.266 0-.55.083-1.117.25-1.703a9.435 9.435 0 0 1 .657-1.688 8.947 8.947 0 0 1 1-1.547c.383-.488.789-.91 1.218-1.265a6.023 6.023 0 0 1 1.329-.844 3.388 3.388 0 0 1 1.375-.312c.613 0 1.113.168 1.5.5.394.324.593.734.593 1.234 0 .312-.093.57-.28.766a.9.9 0 0 1-.704.296c-.293 0-.531-.085-.719-.265a.931.931 0 0 1-.281-.688c0-.164.023-.297.078-.39a.674.674 0 0 0 .078-.297c0-.176-.152-.266-.453-.266-.418 0-.844.2-1.281.594-.43.398-.82.906-1.172 1.531a10.145 10.145 0 0 0-.86 2.078 8.41 8.41 0 0 0-.328 2.297c0 .606.114 1.086.344 1.438.239.343.567.515.985.515.226 0 .468-.062.718-.187.25-.125.5-.297.75-.516.258-.226.504-.492.735-.797.238-.3.453-.64.64-1.015Zm8.351.53c-1.106 1.813-2.465 2.72-4.078 2.72-.875 0-1.547-.266-2.016-.798-.469-.539-.703-1.312-.703-2.312 0-.875.18-1.75.547-2.625a9.04 9.04 0 0 1 1.422-2.36 7.76 7.76 0 0 1 1.953-1.718c.726-.438 1.453-.656 2.172-.656.613 0 1.113.156 1.5.468.382.305.578.7.578 1.188 0 .437-.168.898-.5 1.375-.324.469-.774.914-1.344 1.328a10.81 10.81 0 0 1-1.984 1.14c-.75.344-1.555.61-2.407.797a6.52 6.52 0 0 0-.047.532c-.011.168-.015.34-.015.515 0 1.387.484 2.078 1.453 2.078.469 0 .953-.18 1.453-.546.508-.375.977-.883 1.406-1.532Zm-1.078-6.859c-.336 0-.68.133-1.032.39-.355.25-.695.59-1.015 1.016a8.355 8.355 0 0 0-.89 1.454 8.822 8.822 0 0 0-.642 1.687 7.935 7.935 0 0 0 1.688-.64c.52-.27.969-.57 1.344-.907.375-.332.664-.687.875-1.062.218-.375.328-.754.328-1.14 0-.532-.219-.798-.656-.798Zm3.995 9.579c-.355 0-.664-.122-.922-.36-.261-.238-.39-.55-.39-.938 0-.375.125-.69.375-.953.257-.27.57-.406.937-.406.395 0 .719.137.969.406.25.262.375.575.375.938 0 .367-.137.68-.406.937a1.31 1.31 0 0 1-.938.375Zm0 0"/>
</svg>
